
<svg version="1.0" xmlns="http://www.w3.org/2000/svg"
 width="150" height="50" viewBox="0 0 225.000000 225.000000"
 preserveAspectRatio="xMidYMid meet">
<g transform="translate(0.000000,225.000000) scale(0.100000,-0.100000)"
fill="#000000" stroke="none">
<path d="M1465 1430 c-121 -121 -223 -220 -227 -220 -5 0 -8 7 -8 15 0 8 -13
29 -29 47 -24 27 -36 32 -87 36 -54 3 -61 2 -86 -25 l-27 -28 50 -2 c82 -2
121 -43 104 -110 -4 -18 -96 -118 -258 -280 -138 -139 -245 -253 -237 -253 8
0 120 105 247 232 l233 233 0 -111 c0 -115 -5 -130 -50 -147 -8 -3 20 -6 63
-6 l77 -1 0 177 0 178 242 242 c134 134 236 243 228 243 -8 0 -114 -99 -235
-220z"/>
<path d="M605 1512 c-137 -47 -203 -171 -163 -306 16 -55 99 -138 154 -154 65
-19 81 -14 34 11 -59 31 -90 92 -97 191 -10 128 32 226 111 261 44 19 20 18
-39 -3z"/>
<path d="M1040 1519 c-29 -12 -58 -37 -72 -63 -10 -18 -9 -18 13 -2 30 20 88
21 117 0 24 -17 30 -61 11 -95 -10 -19 -9 -20 13 -8 61 31 83 71 66 120 -17
49 -88 72 -148 48z"/>
<path d="M1545 1237 l-18 -54 31 -82 c18 -46 32 -85 32 -87 0 -2 -29 -4 -65
-4 -88 0 -83 -18 6 -22 l71 -3 19 -50 c26 -68 25 -103 -3 -115 -16 -6 14 -9
92 -9 73 0 107 3 94 9 -38 15 -60 57 -140 264 -43 113 -84 206 -90 206 -6 0
-19 -24 -29 -53z"/>
</g>
</svg>
